Coordinates
version=1
nRows=11
nColumns=40
inDegrees=yes

Units are S.I. units (second, meters, Newtons, ...)
If the header above contains a line with 'inDegrees', this indicates whether rotational values are in degrees (yes) or radians (no).

endheader
time	pelvis_tilt	pelvis_list	pelvis_rotation	pelvis_tx	pelvis_ty	pelvis_tz	hip_flexion_r	hip_adduction_r	hip_rotation_r	knee_angle_r	knee_angle_r_beta	ankle_angle_r	subtalar_angle_r	mtp_angle_r	hip_flexion_l	hip_adduction_l	hip_rotation_l	knee_angle_l	knee_angle_l_beta	ankle_angle_l	subtalar_angle_l	mtp_angle_l	lumbar_extension	lumbar_bending	lumbar_rotation	arm_flex_r	arm_add_r	arm_rot_r	elbow_flex_r	pro_sup_r	wrist_flex_r	wrist_dev_r	arm_flex_l	arm_add_l	arm_rot_l	elbow_flex_l	pro_sup_l	wrist_flex_l	wrist_dev_l
      0.17000000	      7.11831849	      5.93777752	     -6.01096370	     -0.03645936	      0.83179444	     -0.21959974	    -12.10096441	    -12.87700318	     -6.15259063	     49.55463596	      0.86489156	    -26.58293771	      0.00000000	      0.00000000	     10.49976677	      9.37841279	     -8.02516647	     10.65758383	      0.18600993	     -3.67844187	      0.00000000	      0.00000000	    -16.98895064	     -8.50820120	      2.99254782	     -0.73313389	     -1.95773598	      0.32780628	     34.05382127	     88.74474348	      5.32402728	     21.53168847	    -11.60814080	     -1.95509993	     -9.45434001	     36.08800278	     88.98822692	     -2.72017324	     15.43739885
      0.18000000	      7.14388998	      6.42306789	     -5.74127782	     -0.02468609	      0.83283809	     -0.22153552	    -10.76880428	    -13.92942870	     -6.60290197	     51.99663225	      0.90751243	    -27.26309194	      0.00000000	      0.00000000	      9.81361429	     10.15814053	     -7.73749503	     10.98613554	      0.19174424	     -2.95049715	      0.00000000	      0.00000000	    -16.91999854	     -8.88674604	      2.39020465	     -0.92812207	     -1.91597693	      0.13139348	     34.08426527	     88.73537232	      5.37486088	     21.49764009	    -11.57161469	     -2.19705483	     -9.51511098	     36.33571849	     88.98765554	     -2.62721079	     15.51523351
      0.19000000	      6.92467605	      6.91555467	     -5.40428733	     -0.01335073	      0.83337475	     -0.22355297	     -9.05538385	    -14.92764988	     -6.98136138	     54.55697542	      0.95219885	    -26.77183783	      0.00000000	      0.00000000	      9.39507207	     10.92036871	     -7.47027374	     11.28470277	      0.19695522	     -2.27214532	      0.00000000	      0.00000000	    -16.64008815	     -9.24428794	      1.71916599	     -1.06083278	     -1.86443409	     -0.02618362	     34.06560731	     88.72744203	      5.41278562	     21.57513499	    -11.55120905	     -2.42041862	     -9.73368717	     36.70201999	     88.98726927	     -2.58836355	     15.67033156
      0.20000000	      6.77612673	      7.21051851	     -5.04090434	     -0.00254877	      0.83412538	     -0.22553097	     -7.35361637	    -15.59986754	     -7.16429322	     56.97345909	      0.99437445	    -25.56674639	      0.00000000	      0.00000000	      8.84192279	     11.48261434	     -7.06588877	     11.49152692	      0.20056498	     -1.54743010	      0.00000000	      0.00000000	    -16.52815448	     -9.40024994	      1.07070958	     -1.10414987	     -1.87335290	     -0.08441818	     34.01824963	     88.71558506	      5.42434294	     21.67464996	    -11.41634720	     -2.62099624	     -9.94625535	     37.05444736	     88.98935745	     -2.59858252	     15.81531566
      0.21000000	      6.54792487	      7.40380669	     -4.65983712	      0.00788250	      0.83476588	     -0.22738033	     -5.49587743	    -16.08256087	     -7.30116173	     59.28641217	      1.03474309	    -23.70055944	      0.00000000	      0.00000000	      8.34648033	     11.90872813	     -6.68419520	     11.62910885	      0.20296624	     -0.87540333	      0.00000000	      0.00000000	    -16.38071883	     -9.44942402	      0.41423378	     -1.08669676	     -1.88267399	     -0.08880072	     33.94667582	     88.70148154	      5.39468444	     21.79674175	    -11.25405751	     -2.82055124	    -10.22415182	     37.43180257	     88.99666995	     -2.68388472	     15.95534806
      0.22000000	      6.28627971	      7.50570297	     -4.28325596	      0.01782849	      0.83538119	     -0.22921453	     -3.51501966	    -16.39878827	     -7.36023334	     61.44539957	      1.07242453	    -21.44222773	      0.00000000	      0.00000000	      7.87349978	     12.23292373	     -6.31679360	     11.70775907	      0.20433894	     -0.24200319	      0.00000000	      0.00000000	    -16.25796836	     -9.39707905	     -0.24490464	     -0.97922542	     -1.91772404	     -0.02218433	     33.83926032	     88.69252203	      5.31196409	     21.92367959	    -11.03221497	     -2.99038628	    -10.54025238	     37.82805735	     89.00502479	     -2.86441611	     16.06860773
      0.23000000	      6.41234707	      7.32077748	     -3.96558419	      0.02730136	      0.83691011	     -0.23082560	     -1.92276608	    -16.29607000	     -7.29727147	     63.18994204	      1.10287254	    -19.59239891	      0.00000000	      0.00000000	      6.84743909	     12.29050526	     -5.65395842	     11.49996179	      0.20071220	      0.28771142	      0.00000000	      0.00000000	    -16.65474060	     -9.06559830	     -0.71022444	     -0.84790620	     -2.00562211	     -0.03503195	     33.80528511	     88.68542874	      5.25969631	     21.93145113	    -10.57778725	     -3.16929633	    -10.59394050	     38.09695175	     89.01133460	     -2.94948607	     16.04105847
      0.24000000	      5.79898929	      7.39566029	     -3.64438925	      0.03664332	      0.83677688	     -0.23240746	      0.58483912	    -16.43942745	     -7.24565347	     65.09183279	      1.13606680	    -16.13473119	      0.00000000	      0.00000000	      6.76288044	     12.52538142	     -5.30125172	     11.50343022	      0.20077273	      0.94543469	      0.00000000	      0.00000000	    -16.18310225	     -9.02986527	     -1.25010522	     -0.67807268	     -2.07326523	      0.25258935	     33.57455729	     88.68749750	      4.96314166	     22.11578510	    -10.43287994	     -3.29995825	    -11.04955059	     38.81775628	     89.02218271	     -3.59932631	     15.93621332
      0.25000000	      5.70255636	      7.16623933	     -3.36992262	      0.04576666	      0.83778109	     -0.23386534	      2.43757838	    -16.18078461	     -7.23057726	     66.41482978	      1.15915745	    -13.26460836	      0.00000000	      0.00000000	      5.98433693	     12.48506344	     -4.79637435	     11.26252917	      0.19656822	      1.45417496	      0.00000000	      0.00000000	    -16.33358952	     -8.66153088	     -1.61775576	     -0.55210865	     -2.18131250	      0.27975232	     33.53130473	     88.69065679	      4.78744958	     22.13273565	    -10.04088515	     -3.42730505	    -11.21086624	     39.30608313	     89.02659320	     -3.95449039	     15.74440059
      0.26000000	      5.48484067	      6.94716215	     -3.18127820	      0.05454567	      0.83852258	     -0.23510067	      4.51629270	    -15.86246251	     -7.11065794	     67.53284949	      1.17867058	    -10.53629849	      0.00000000	      0.00000000	      5.37672664	     12.42223476	     -4.35758748	     11.01139978	      0.19218518	      1.92882369	      0.00000000	      0.00000000	    -16.35382543	     -8.33517671	     -1.91823129	     -0.37465566	     -2.27135097	      0.35209744	     33.44998601	     88.70350234	      4.54219429	     22.20378133	     -9.67037907	     -3.53444858	    -11.43417069	     39.87334903	     89.03310954	     -4.53734066	     15.43226803
      0.27000000	      5.47102638	      6.55084159	     -3.05628309	      0.06319853	      0.83971806	     -0.23622661	      6.34517187	    -15.27552863	     -6.93494937	     68.24693973	      1.19113380	     -8.47342637	      0.00000000	      0.00000000	      4.44444719	     12.18676922	     -3.78621450	     10.53095621	      0.18379986	      2.22800285	      0.00000000	      0.00000000	    -16.62727574	     -7.81518046	     -2.06854853	     -0.20772885	     -2.40848659	      0.31220781	     33.41880731	     88.71644554	      4.44489811	     22.22317150	     -9.21426937	     -3.64438920	    -11.47999754	     40.42614840	     89.03233887	     -4.75595149	     15.22990108
